<?xml version="1.0" encoding="UTF-8" standalone="no"?>
<svg
   inkscape:version="1.4 (e7c3feb1, 2024-10-09)"
   sodipodi:docname="instagram-white.svg"
   viewBox="0 0 24.000001 24"
   height="24"
   width="24"
   xml:space="preserve"
   id="svg2"
   version="1.1"
   xmlns:inkscape="http://www.inkscape.org/namespaces/inkscape"
   xmlns:sodipodi="http://sodipodi.sourceforge.net/DTD/sodipodi-0.dtd"
   xmlns="http://www.w3.org/2000/svg"
   xmlns:svg="http://www.w3.org/2000/svg"
   xmlns:rdf="http://www.w3.org/1999/02/22-rdf-syntax-ns#"
   xmlns:cc="http://creativecommons.org/ns#"
   xmlns:dc="http://purl.org/dc/elements/1.1/"><metadata
     id="metadata8"><rdf:RDF><cc:Work
         rdf:about=""><dc:format>image/svg+xml</dc:format><dc:type
           rdf:resource="http://purl.org/dc/dcmitype/StillImage" /><dc:title /></cc:Work></rdf:RDF></metadata><defs
     id="defs6"><radialGradient
       id="radialGradient18"
       spreadMethod="pad"
       gradientTransform="matrix(326.915,0,0,-326.915,125,125)"
       gradientUnits="userSpaceOnUse"
       r="1"
       cy="0"
       cx="0"
       fy="0"
       fx="0"><stop
         id="stop14"
         offset="0"
         style="stop-opacity:1;stop-color:#ffffff" /><stop
         id="stop16"
         offset="1"
         style="stop-opacity:1;stop-color:#100f0d" /></radialGradient><clipPath
       id="clipPath28"
       clipPathUnits="userSpaceOnUse"><path
         id="path26"
         d="m 71.1328,162.766 c 0,-10.977 -8.4336,-20.012 -19.1406,-20.871 -0.5899,-0.11 -1.1914,-0.11 -1.7813,-0.11 -1.5664,0 -3.0859,0.156 -4.5429,0.488 -9.4063,2.114 -16.4414,10.493 -16.4414,20.493 0,11.57 9.4179,20.925 20.9843,20.925 11.5704,0 20.9219,-9.355 20.9219,-20.925 z" /></clipPath><linearGradient
       id="linearGradient36"
       spreadMethod="pad"
       gradientTransform="matrix(8.74701,-59.2106,-59.2106,-8.74701,45.0195,197.744)"
       gradientUnits="userSpaceOnUse"
       y2="0"
       x2="1"
       y1="0"
       x1="0"><stop
         id="stop30"
         offset="0"
         style="stop-opacity:1;stop-color:#2a3986" /><stop
         id="stop32"
         offset="0.94086"
         style="stop-opacity:1;stop-color:#171c3b" /><stop
         id="stop34"
         offset="1"
         style="stop-opacity:1;stop-color:#171c3b" /></linearGradient><clipPath
       id="clipPath48"
       clipPathUnits="userSpaceOnUse"><path
         id="path46"
         d="m 120.801,162.785 c 0,-11.594 -9.391,-20.969 -20.9612,-20.969 -11.5742,0 -20.9492,9.375 -20.9492,20.969 0,11.57 9.375,20.945 20.9492,20.945 11.5702,0 20.9612,-9.375 20.9612,-20.945 z" /></clipPath><linearGradient
       id="linearGradient58"
       spreadMethod="pad"
       gradientTransform="matrix(0.76299,-65.6164,-65.6164,-0.76299,99.4141,200.395)"
       gradientUnits="userSpaceOnUse"
       y2="0"
       x2="1"
       y1="0"
       x1="0"><stop
         id="stop50"
         offset="0"
         style="stop-opacity:1;stop-color:#46bb3a" /><stop
         id="stop52"
         offset="0.132227"
         style="stop-opacity:1;stop-color:#46bb3a" /><stop
         id="stop54"
         offset="0.793966"
         style="stop-opacity:1;stop-color:#2c9c40" /><stop
         id="stop56"
         offset="1"
         style="stop-opacity:1;stop-color:#2c9c40" /></linearGradient><clipPath
       id="clipPath72"
       clipPathUnits="userSpaceOnUse"><path
         id="path70"
         d="m 170.117,162.5 c 0,-11.562 -9.387,-20.957 -20.945,-20.957 -11.582,0 -20.957,9.395 -20.957,20.957 0,11.582 9.375,20.957 20.957,20.957 11.558,0 20.945,-9.375 20.945,-20.957 z" /></clipPath><linearGradient
       id="linearGradient82"
       spreadMethod="pad"
       gradientTransform="matrix(-3e-6,-68.9238,-68.9238,3e-6,149.17,206.48)"
       gradientUnits="userSpaceOnUse"
       y2="0"
       x2="1"
       y1="0"
       x1="0"><stop
         id="stop74"
         offset="0"
         style="stop-opacity:1;stop-color:#50abe3" /><stop
         id="stop76"
         offset="0.317204"
         style="stop-opacity:1;stop-color:#50abe3" /><stop
         id="stop78"
         offset="0.672043"
         style="stop-opacity:1;stop-color:#3d84c9" /><stop
         id="stop80"
         offset="1"
         style="stop-opacity:1;stop-color:#3d84c9" /></linearGradient><clipPath
       id="clipPath94"
       clipPathUnits="userSpaceOnUse"><path
         id="path92"
         d="m 220.781,162.629 c 0,-11.586 -9.375,-20.969 -20.957,-20.969 -11.562,0 -20.945,9.383 -20.945,20.969 0,11.57 9.383,20.957 20.945,20.957 11.582,0 20.957,-9.387 20.957,-20.957 z" /></clipPath><clipPath
       id="clipPath100"
       clipPathUnits="userSpaceOnUse"><path
         id="path98"
         d="m 175.637,186.828 c 1.597,0 3.218,0 4.832,0 1.609,0 3.222,0 4.844,0 1.613,0 3.234,0 4.843,0 1.614,0 3.211,0 4.832,0 1.614,0 3.227,0 4.836,0 1.621,0 3.235,0 4.832,0 1.621,0 3.235,0 4.848,0 1.609,0 3.23,0 4.844,0 1.597,0 3.218,0 4.832,0 1.609,0 3.222,0 4.836,0 0,-1.613 0,-3.242 0,-4.848 0,-1.609 0,-3.23 0,-4.839 0,-1.614 0,-3.227 0,-4.848 0,-1.609 0,-3.23 0,-4.832 0,-1.621 0,-3.223 0,-4.832 0,-1.621 0,-3.242 0,-4.863 0,-1.594 0,-3.215 0,-4.825 0,-1.613 0,-3.234 0,-4.843 0,-1.621 0,-3.227 0,-4.836 0,-1.621 0,-3.242 0,-4.832 -1.614,0 -3.227,0 -4.836,0 -1.614,0 -3.235,0 -4.832,0 -1.614,0 -3.235,0 -4.844,0 -1.613,0 -3.227,0 -4.848,0 -1.597,0 -3.211,0 -4.832,0 -1.609,0 -3.222,0 -4.836,0 -1.621,0 -3.218,0 -4.832,0 -1.609,0 -3.23,0 -4.843,0 -1.622,0 -3.235,0 -4.844,0 -1.614,0 -3.235,0 -4.832,0 0,1.59 0,3.211 0,4.832 0,1.609 0,3.215 0,4.836 0,1.609 0,3.23 0,4.843 0,1.61 0,3.231 0,4.825 0,1.621 0,3.242 0,4.863 0,1.609 0,3.211 0,4.832 0,1.602 0,3.223 0,4.832 0,1.621 0,3.234 0,4.848 0,1.609 0,3.23 0,4.839 0,1.606 0,3.235 0,4.848 z" /></clipPath><clipPath
       id="clipPath106"
       clipPathUnits="userSpaceOnUse"><path
         id="path104"
         d="m 196,141 v 1 h -4 v 1 h -2 v 1 h -1 v 1 h -2 v 1 h -1 v 1 h -2 v 2 h -1 v 1 h -1 v 2 h -1 v 1 h -1 v 3 h -1 v 4 h -1 v 6 h 1 v 3 h 1 v 3 h 1 v 1 h 1 v 2 h 1 v 1 h 1 v 2 h 1 v 1 h 2 v 1 h 1 v 1 h 2 v 1 h 1 v 1 h 4 v 1 h 10 v -1 h 3 v -1 h 2 v -1 h 1 v -1 h 2 v -1 h 1 v -1 h 1 v -1 h 1 v -1 h 1 v -2 h 1 v -1 h 1 v -2 h 1 v -3 h 1 v -11 h -1 v -3 h -1 v -2 h -1 v -1 h -1 v -2 h -1 v -1 h -1 v -1 h -1 v -1 h -2 v -1 h -1 v -1 h -1 v -1 h -3 v -1 h -3 v -1" /></clipPath></defs><sodipodi:namedview
     inkscape:current-layer="g12"
     inkscape:window-maximized="0"
     inkscape:window-y="34"
     inkscape:window-x="0"
     inkscape:cy="166.26981"
     inkscape:cx="103.554"
     inkscape:zoom="1.7140815"
     showgrid="false"
     id="namedview4"
     inkscape:window-height="1055"
     inkscape:window-width="1728"
     inkscape:pageshadow="2"
     inkscape:pageopacity="0"
     guidetolerance="10"
     gridtolerance="10"
     objecttolerance="10"
     borderopacity="1"
     bordercolor="#666666"
     pagecolor="#ffffff"
     inkscape:document-rotation="0"
     inkscape:showpageshadow="2"
     inkscape:pagecheckerboard="0"
     inkscape:deskcolor="#d1d1d1" /><g
     transform="matrix(1.3333333,0,0,-1.3333333,-23.850533,9.8895866)"
     inkscape:label="ink_ext_XXXXXX"
     inkscape:groupmode="layer"
     id="g10"><g
       transform="scale(0.1)"
       id="g12"><path
         id="path20"
         style="fill:none;fill-opacity:1;fill-rule:nonzero;stroke:none"
         d="M 250,0 H 0 V 250 H 250 V 0" /><g
         id="g88"><g
           clip-path="url(#clipPath94)"
           id="g90"><g
             clip-path="url(#clipPath100)"
             id="g96"><g
               clip-path="url(#clipPath106)"
               id="g102"><g
                 transform="matrix(1,0,0,-1,-8179,8204)"
                 id="g108"><path
                   id="path110"
                   style="fill:#474ba8;fill-opacity:1;fill-rule:nonzero;stroke:none"
                   d="m 8196.5633,8185.32 c 0.1601,0 0.3222,0 0.4833,0 0,0.081 0,0.1616 0,0.2421 -0.1611,0 -0.3232,0 -0.4833,0 0,-0.081 0,-0.1616 0,-0.2421 z" /><path
                   id="path112"
                   style="fill:#4948a6;fill-opacity:1;fill-rule:nonzero;stroke:none"
                   d="m 8196.5633,8185.5621 c 0.1601,0 0.3222,0 0.4833,0 0,0.081 0,0.1621 0,0.2422 -0.1611,0 -0.3232,0 -0.4833,0 0,-0.08 0,-0.1611 0,-0.2422 z" /><path
                   id="path114"
                   style="fill:#4c47a5;fill-opacity:1;fill-rule:nonzero;stroke:none"
                   d="m 8197.0466,8185.32 c 0.1611,0 0.3222,0 0.4842,0 0,0.081 0,0.1616 0,0.2421 -0.162,0 -0.3231,0 -0.4842,0 0,-0.081 0,-0.1616 0,-0.2421 z" /><path
                   id="path116"
                   style="fill:#5243a3;fill-opacity:1;fill-rule:nonzero;stroke:none"
                   d="m 8197.0466,8185.5621 c 0.1611,0 0.3222,0 0.4842,0 0,0.081 0,0.1621 0,0.2422 -0.162,0 -0.3231,0 -0.4842,0 0,-0.08 0,-0.1611 0,-0.2422 z" /><path
                   id="path118"
                   style="fill:#5540a2;fill-opacity:1;fill-rule:nonzero;stroke:none"
                   d="m 8197.5308,8185.32 c 0.1611,0 0.3232,0 0.4843,0 0,0.1611 0,0.3241 0,0.4843 -0.1611,0 -0.3232,0 -0.4843,0 0,-0.1602 0,-0.3232 0,-0.4843 z" /><path
                   id="path120"
                   style="fill:#5d3a9e;fill-opacity:1;fill-rule:nonzero;stroke:none"
                   d="m 8198.0151,8185.32 c 0.1611,0 0.3212,0 0.4833,0 0,0.081 0,0.1616 0,0.2421 -0.1621,0 -0.3222,0 -0.4833,0 0,-0.081 0,-0.1616 0,-0.2421 z" /><path
                   id="path122"
                   style="fill:#6d2f99;fill-opacity:1;fill-rule:nonzero;stroke:none"
                   d="m 8198.0151,8185.5621 c 0.1611,0 0.3212,0 0.4833,0 0,0.081 0,0.1621 0,0.2422 -0.1621,0 -0.3222,0 -0.4833,0 0,-0.08 0,-0.1611 0,-0.2422 z" /><path
                   id="path124"
                   style="fill:#67349b;fill-opacity:1;fill-rule:nonzero;stroke:none"
                   d="m 8198.4984,8185.32 c 0.1611,0 0.3222,0 0.4833,0 0,0.081 0,0.1616 0,0.2421 -0.1611,0 -0.3222,0 -0.4833,0 0,-0.081 0,-0.1616 0,-0.2421 z" /><path
                   id="path126"
                   style="fill:#782996;fill-opacity:1;fill-rule:nonzero;stroke:none"
                   d="m 8198.4984,8185.5621 c 0.1611,0 0.3222,0 0.4833,0 0,0.081 0,0.1621 0,0.2422 -0.1611,0 -0.3222,0 -0.4833,0 0,-0.08 0,-0.1611 0,-0.2422 z" /><path
                   id="path128"
                   style="fill:#6c319a;fill-opacity:1;fill-rule:nonzero;stroke:none"
                   d="m 8198.9817,8185.32 c 0.162,0 0.3231,0 0.4832,0 0,0.1611 0,0.3241 0,0.4843 -0.1601,0 -0.3212,0 -0.4832,0 0,-0.1602 0,-0.3232 0,-0.4843 z" /><path
                   id="path130"
                   style="fill:#6c329a;fill-opacity:1;fill-rule:nonzero;stroke:none"
                   d="m 8199.4649,8185.32 c 0.1621,0 0.3232,0 0.4843,0 0,0.1611 0,0.3241 0,0.4843 -0.1611,0 -0.3222,0 -0.4843,0 0,-0.1602 0,-0.3232 0,-0.4843 z" /><path
                   id="path132"
                   style="fill:#66359c;fill-opacity:1;fill-rule:nonzero;stroke:none"
                   d="m 8199.9492,8185.32 c 0.1611,0 0.3231,0 0.4842,0 0,0.1611 0,0.3241 0,0.4843 -0.1611,0 -0.3231,0 -0.4842,0 0,-0.1602 0,-0.3232 0,-0.4843 z" /><path
                   id="path134"
                   style="fill:#5e3a9e;fill-opacity:1;fill-rule:nonzero;stroke:none"
                   d="m 8200.4334,8185.32 c 0.1602,0 0.3222,0 0.4833,0 0,0.1611 0,0.3241 0,0.4843 -0.1611,0 -0.3231,0 -0.4833,0 0,-0.1602 0,-0.3232 0,-0.4843 z" /><path
                   id="path136"
                   style="fill:#583fa1;fill-opacity:1;fill-rule:nonzero;stroke:none"
                   d="m 8200.9167,8185.32 c 0.1611,0 0.3222,0 0.4833,0 0,0.1611 0,0.3241 0,0.4843 -0.1611,0 -0.3222,0 -0.4833,0 0,-0.1602 0,-0.3232 0,-0.4843 z" /><path
                   id="path138"
                   style="fill:#4d44a3;fill-opacity:1;fill-rule:nonzero;stroke:none"
                   d="m 8196.5633,8185.8043 c 0.1601,0 0.3222,0 0.4833,0 0,0.081 0,0.161 0,0.2421 -0.1611,0 -0.3232,0 -0.4833,0 0,-0.081 0,-0.1616 0,-0.2421 z" /><path
                   id="path140"
                   style="fill:#553d9f;fill-opacity:1;fill-rule:nonzero;stroke:none"
                   d="m 8196.5633,8186.0464 c 0.1601,0 0.3222,0 0.4833,0 0,0.081 0,0.1616 0,0.2421 -0.1611,0 -0.3232,0 -0.4833,0 0,-0.081 0,-0.1611 0,-0.2421 z" /><path
                   id="path142"
                   style="fill:#5b3ca0;fill-opacity:1;fill-rule:nonzero;stroke:none"
                   d="m 8197.0466,8185.8043 c 0.1611,0 0.3222,0 0.4842,0 0,0.081 0,0.161 0,0.2421 -0.162,0 -0.3231,0 -0.4842,0 0,-0.081 0,-0.1616 0,-0.2421 z" /><path
                   id="path144"
                   style="fill:#6e2f99;fill-opacity:1;fill-rule:nonzero;stroke:none"
                   d="m 8197.0466,8186.0464 c 0.1611,0 0.3222,0 0.4842,0 0,0.081 0,0.1616 0,0.2421 -0.162,0 -0.3231,0 -0.4842,0 0,-0.081 0,-0.1611 0,-0.2421 z" /><path
                   id="path146"
                   style="fill:#6f2e99;fill-opacity:1;fill-rule:nonzero;stroke:none"
                   d="m 8197.5308,8185.8043 c 0.1611,0 0.3232,0 0.4843,0 0,0.161 0,0.3231 0,0.4842 -0.1611,0 -0.3232,0 -0.4843,0 0,-0.1611 0,-0.3232 0,-0.4842 z" /><path
                   id="path148"
                   style="fill:#832193;fill-opacity:1;fill-rule:nonzero;stroke:none"
                   d="m 8198.0151,8185.8043 c 0.1611,0 0.3212,0 0.4833,0 0,0.161 0,0.3231 0,0.4842 -0.1621,0 -0.3222,0 -0.4833,0 0,-0.1611 0,-0.3232 0,-0.4842 z" /><path
                   id="path150"
                   style="fill:#90188f;fill-opacity:1;fill-rule:nonzero;stroke:none"
                   d="m 8198.4984,8185.8043 c 0.1611,0 0.3222,0 0.4833,0 0,0.161 0,0.3231 0,0.4842 -0.1611,0 -0.3222,0 -0.4833,0 0,-0.1611 0,-0.3232 0,-0.4842 z" /><path
                   id="path152"
                   style="fill:#94178f;fill-opacity:1;fill-rule:nonzero;stroke:none"
                   d="m 8198.9817,8185.8043 c 0.162,0 0.3231,0 0.4832,0 0,0.161 0,0.3231 0,0.4842 -0.1601,0 -0.3212,0 -0.4832,0 0,-0.1611 0,-0.3232 0,-0.4842 z" /><path
                   id="path154"
                   style="fill:#901a90;fill-opacity:1;fill-rule:nonzero;stroke:none"
                   d="m 8199.4649,8185.8043 c 0.1621,0 0.3232,0 0.4843,0 0,0.161 0,0.3231 0,0.4842 -0.1611,0 -0.3222,0 -0.4843,0 0,-0.1611 0,-0.3232 0,-0.4842 z" /><path
                   id="path156"
                   style="fill:#882093;fill-opacity:1;fill-rule:nonzero;stroke:none"
                   d="m 8199.9492,8185.8043 c 0.1611,0 0.3231,0 0.4842,0 0,0.161 0,0.3231 0,0.4842 -0.1611,0 -0.3231,0 -0.4842,0 0,-0.1611 0,-0.3232 0,-0.4842 z" /><path
                   id="path158"
                   style="fill:#792a97;fill-opacity:1;fill-rule:nonzero;stroke:none"
                   d="m 8200.4334,8185.8043 c 0.1602,0 0.3222,0 0.4833,0 0,0.161 0,0.3231 0,0.4842 -0.1611,0 -0.3231,0 -0.4833,0 0,-0.1611 0,-0.3232 0,-0.4842 z" /><path
                   id="path160"
                   style="fill:#69349b;fill-opacity:1;fill-rule:nonzero;stroke:none"
                   d="m 8200.9167,8185.8043 c 0.1611,0 0.3222,0 0.4833,0 0,0.161 0,0.3231 0,0.4842 -0.1611,0 -0.3222,0 -0.4833,0 0,-0.1611 0,-0.3232 0,-0.4842 z" /><path
                   id="path162"
                   style="fill:#65329a;fill-opacity:1;fill-rule:nonzero;stroke:none"
                   d="m 8196.5633,8186.2885 c 0,0.1611 0,0.3222 0,0.4843 0.08,0 0.1611,0 0.2412,0 0,-0.1621 0,-0.3232 0,-0.4843 -0.08,0 -0.1611,0 -0.2412,0 z" /><path
                   id="path164"
                   style="fill:#772896;fill-opacity:1;fill-rule:nonzero;stroke:none"
                   d="m 8196.8045,8186.2885 c 0.081,0 0.162,0 0.2421,0 0,0.081 0,0.1611 0,0.2416 -0.08,0 -0.1611,0 -0.2421,0 0,-0.081 0,-0.161 0,-0.2416 z" /><path
                   id="path166"
                   style="fill:#95188d;fill-opacity:1;fill-rule:nonzero;stroke:none"
                   d="m 8196.8045,8186.5301 c 0.081,0 0.162,0 0.2421,0 0,0.081 0,0.1616 0,0.2427 -0.08,0 -0.1611,0 -0.2421,0 0,-0.081 0,-0.1621 0,-0.2427 z" /><path
                   id="path168"
                   style="fill:#891c90;fill-opacity:1;fill-rule:nonzero;stroke:none"
                   d="m 8197.0466,8186.2885 c 0.1611,0 0.3222,0 0.4842,0 0,0.081 0,0.1611 0,0.2416 -0.162,0 -0.3231,0 -0.4842,0 0,-0.081 0,-0.161 0,-0.2416 z" /><path
                   id="path170"
                   style="fill:#a51783;fill-opacity:1;fill-rule:nonzero;stroke:none"
                   d="m 8197.0466,8186.5301 c 0.1611,0 0.3222,0 0.4842,0 0,0.081 0,0.1616 0,0.2427 -0.162,0 -0.3231,0 -0.4842,0 0,-0.081 0,-0.1621 0,-0.2427 z" /><path
                   id="path172"
                   style="fill:#a71482;fill-opacity:1;fill-rule:nonzero;stroke:none"
                   d="m 8197.5308,8186.2885 c 0.1611,0 0.3232,0 0.4843,0 0,0.081 0,0.1611 0,0.2416 -0.1611,0 -0.3232,0 -0.4843,0 0,-0.081 0,-0.161 0,-0.2416 z" /><path
                   id="path174"
                   style="fill:#bd166c;fill-opacity:1;fill-rule:nonzero;stroke:none"
                   d="m 8197.5308,8186.5301 c 0.1611,0 0.3232,0 0.4843,0 0,0.081 0,0.1616 0,0.2427 -0.1611,0 -0.3232,0 -0.4843,0 0,-0.081 0,-0.1621 0,-0.2427 z" /><path
                   id="path176"
                   style="fill:#b61376;fill-opacity:1;fill-rule:nonzero;stroke:none"
                   d="m 8198.0151,8186.2885 c 0.1611,0 0.3212,0 0.4833,0 0,0.081 0,0.1611 0,0.2416 -0.1621,0 -0.3222,0 -0.4833,0 0,-0.081 0,-0.161 0,-0.2416 z" /><path
                   id="path178"
                   style="fill:#c91661;fill-opacity:1;fill-rule:nonzero;stroke:none"
                   d="m 8198.0151,8186.5301 c 0.1611,0 0.3212,0 0.4833,0 0,0.081 0,0.1616 0,0.2427 -0.1621,0 -0.3222,0 -0.4833,0 0,-0.081 0,-0.1621 0,-0.2427 z" /><path
                   id="path180"
                   style="fill:#bb1271;fill-opacity:1;fill-rule:nonzero;stroke:none"
                   d="m 8198.4984,8186.2885 c 0.1611,0 0.3222,0 0.4833,0 0,0.081 0,0.1611 0,0.2416 -0.1611,0 -0.3222,0 -0.4833,0 0,-0.081 0,-0.161 0,-0.2416 z" /><path
                   id="path182"
                   style="fill:#cc155e;fill-opacity:1;fill-rule:nonzero;stroke:none"
                   d="m 8198.4984,8186.5301 c 0.1611,0 0.3222,0 0.4833,0 0,0.081 0,0.1616 0,0.2427 -0.1611,0 -0.3222,0 -0.4833,0 0,-0.081 0,-0.1621 0,-0.2427 z" /><path
                   id="path184"
                   style="fill:#bb1274;fill-opacity:1;fill-rule:nonzero;stroke:none"
                   d="m 8198.9817,8186.2885 c 0.162,0 0.3231,0 0.4832,0 0,0.081 0,0.1611 0,0.2416 -0.1601,0 -0.3212,0 -0.4832,0 0,-0.081 0,-0.161 0,-0.2416 z" /><path
                   id="path186"
                   style="fill:#cb1262;fill-opacity:1;fill-rule:nonzero;stroke:none"
                   d="m 8198.9817,8186.5301 c 0.162,0 0.3231,0 0.4832,0 0,0.081 0,0.1616 0,0.2427 -0.1601,0 -0.3212,0 -0.4832,0 0,-0.081 0,-0.1621 0,-0.2427 z" /><path
                   id="path188"
                   style="fill:#b6117c;fill-opacity:1;fill-rule:nonzero;stroke:none"
                   d="m 8199.4649,8186.2885 c 0.1621,0 0.3232,0 0.4843,0 0,0.1611 0,0.3222 0,0.4843 -0.1611,0 -0.3222,0 -0.4843,0 0,-0.1621 0,-0.3232 0,-0.4843 z" /><path
                   id="path190"
                   style="fill:#b01186;fill-opacity:1;fill-rule:nonzero;stroke:none"
                   d="m 8199.9492,8186.2885 c 0.1611,0 0.3231,0 0.4842,0 0,0.1611 0,0.3222 0,0.4843 -0.1611,0 -0.3231,0 -0.4842,0 0,-0.1621 0,-0.3232 0,-0.4843 z" /><path
                   id="path192"
                   style="fill:#a4128e;fill-opacity:1;fill-rule:nonzero;stroke:none"
                   d="m 8200.4334,8186.2885 c 0.1602,0 0.3222,0 0.4833,0 0,0.1611 0,0.3222 0,0.4843 -0.1611,0 -0.3231,0 -0.4833,0 0,-0.1621 0,-0.3232 0,-0.4843 z" /><path
                   id="path194"
                   style="fill:#911d92;fill-opacity:1;fill-rule:nonzero;stroke:none"
                   d="m 8200.9167,8186.2885 c 0.1611,0 0.3222,0 0.4833,0 0,0.1611 0,0.3222 0,0.4843 -0.1611,0 -0.3222,0 -0.4833,0 0,-0.1621 0,-0.3232 0,-0.4843 z" /><path
                   id="path196"
                   style="fill:#9a1984;fill-opacity:1;fill-rule:nonzero;stroke:none"
                   d="m 8196.5633,8186.7728 c 0.08,0 0.1611,0 0.2412,0 0,0.081 0,0.1611 0,0.2421 -0.08,0 -0.1611,0 -0.2412,0 0,-0.081 0,-0.1616 0,-0.2421 z" /><path
                   id="path198"
                   style="fill:#b11c6d;fill-opacity:1;fill-rule:nonzero;stroke:none"
                   d="m 8196.5633,8187.0149 c 0.08,0 0.1611,0 0.2412,0 0,0.081 0,0.1611 0,0.2411 -0.08,0 -0.1611,0 -0.2412,0 0,-0.08 0,-0.1606 0,-0.2411 z" /><path
                   id="path200"
                   style="fill:#ae1977;fill-opacity:1;fill-rule:nonzero;stroke:none"
                   d="m 8196.8045,8186.7728 c 0.081,0 0.162,0 0.2421,0 0,0.081 0,0.1611 0,0.2421 -0.08,0 -0.1611,0 -0.2421,0 0,-0.081 0,-0.1616 0,-0.2421 z" /><path
                   id="path202"
                   style="fill:#c31e62;fill-opacity:1;fill-rule:nonzero;stroke:none"
                   d="m 8196.8045,8187.0149 c 0.081,0 0.162,0 0.2421,0 0,0.081 0,0.1611 0,0.2411 -0.08,0 -0.1611,0 -0.2421,0 0,-0.08 0,-0.1606 0,-0.2411 z" /><path
                   id="path204"
                   style="fill:#be196b;fill-opacity:1;fill-rule:nonzero;stroke:none"
                   d="m 8197.0466,8186.7728 c 0.08,0 0.1611,0 0.2421,0 0,0.081 0,0.1611 0,0.2421 -0.081,0 -0.1621,0 -0.2421,0 0,-0.081 0,-0.1616 0,-0.2421 z" /><path
                   id="path206"
                   style="fill:#d12156;fill-opacity:1;fill-rule:nonzero;stroke:none"
                   d="m 8197.0466,8187.0149 c 0.08,0 0.1611,0 0.2421,0 0,0.081 0,0.1611 0,0.2411 -0.081,0 -0.1621,0 -0.2421,0 0,-0.08 0,-0.1606 0,-0.2411 z" /><path
                   id="path208"
                   style="fill:#c91b61;fill-opacity:1;fill-rule:nonzero;stroke:none"
                   d="m 8197.2887,8186.7728 c 0.08,0 0.1611,0 0.2421,0 0,0.081 0,0.1611 0,0.2421 -0.081,0 -0.162,0 -0.2421,0 0,-0.081 0,-0.1616 0,-0.2421 z" /><path
                   id="path210"
                   style="fill:#d9244c;fill-opacity:1;fill-rule:nonzero;stroke:none"
                   d="m 8197.2887,8187.0149 c 0.08,0 0.1611,0 0.2421,0 0,0.081 0,0.1611 0,0.2411 -0.081,0 -0.162,0 -0.2421,0 0,-0.08 0,-0.1606 0,-0.2411 z" /><path
                   id="path212"
                   style="fill:#cf1d58;fill-opacity:1;fill-rule:nonzero;stroke:none"
                   d="m 8197.5308,8186.7728 c 0.1611,0 0.3232,0 0.4843,0 0,0.081 0,0.1611 0,0.2421 -0.1611,0 -0.3232,0 -0.4843,0 0,-0.081 0,-0.1616 0,-0.2421 z" /><path
                   id="path214"
                   style="fill:#df2844;fill-opacity:1;fill-rule:nonzero;stroke:none"
                   d="m 8197.5308,8187.0149 c 0.1611,0 0.3232,0 0.4843,0 0,0.081 0,0.1611 0,0.2411 -0.1611,0 -0.3232,0 -0.4843,0 0,-0.08 0,-0.1606 0,-0.2411 z" /><path
                   id="path216"
                   style="fill:#d8204d;fill-opacity:1;fill-rule:nonzero;stroke:none"
                   d="m 8198.0151,8186.7728 c 0.1611,0 0.3212,0 0.4833,0 0,0.1611 0,0.3231 0,0.4832 -0.1621,0 -0.3222,0 -0.4833,0 0,-0.1601 0,-0.3221 0,-0.4832 z" /><path
                   id="path218"
                   style="fill:#da1d4c;fill-opacity:1;fill-rule:nonzero;stroke:none"
                   d="m 8198.4984,8186.7728 c 0.1611,0 0.3222,0 0.4833,0 0,0.1611 0,0.3231 0,0.4832 -0.1611,0 -0.3222,0 -0.4833,0 0,-0.1601 0,-0.3221 0,-0.4832 z" /><path
                   id="path220"
                   style="fill:#d81851;fill-opacity:1;fill-rule:nonzero;stroke:none"
                   d="m 8198.9817,8186.7728 c 0.162,0 0.3231,0 0.4832,0 0,0.1611 0,0.3231 0,0.4832 -0.1601,0 -0.3212,0 -0.4832,0 0,-0.1601 0,-0.3221 0,-0.4832 z" /><path
                   id="path222"
                   style="fill:#d3125b;fill-opacity:1;fill-rule:nonzero;stroke:none"
                   d="m 8199.4649,8186.7728 c 0.1621,0 0.3232,0 0.4843,0 0,0.1611 0,0.3231 0,0.4832 -0.1611,0 -0.3222,0 -0.4843,0 0,-0.1601 0,-0.3221 0,-0.4832 z" /><path
                   id="path224"
                   style="fill:#cb1167;fill-opacity:1;fill-rule:nonzero;stroke:none"
                   d="m 8199.9492,8186.7728 c 0.1611,0 0.3231,0 0.4842,0 0,0.1611 0,0.3231 0,0.4832 -0.1611,0 -0.3231,0 -0.4842,0 0,-0.1601 0,-0.3221 0,-0.4832 z" /><path
                   id="path226"
                   style="fill:#c11077;fill-opacity:1;fill-rule:nonzero;stroke:none"
                   d="m 8200.4334,8186.7728 c 0.1602,0 0.3222,0 0.4833,0 0,0.1611 0,0.3231 0,0.4832 -0.1611,0 -0.3231,0 -0.4833,0 0,-0.1601 0,-0.3221 0,-0.4832 z" /><path
                   id="path228"
                   style="fill:#b41088;fill-opacity:1;fill-rule:nonzero;stroke:none"
                   d="m 8200.9167,8186.7728 c 0.1611,0 0.3222,0 0.4833,0 0,0.1611 0,0.3231 0,0.4832 -0.1611,0 -0.3222,0 -0.4833,0 0,-0.1601 0,-0.3221 0,-0.4832 z" /><path
                   id="path230"
                   style="fill:#c62258;fill-opacity:1;fill-rule:nonzero;stroke:none"
                   d="m 8196.5633,8187.256 c 0,0.1621 0,0.3222 0,0.4833 0.08,0 0.1611,0 0.2412,0 0,-0.1611 0,-0.3212 0,-0.4833 -0.08,0 -0.1611,0 -0.2412,0 z" /><path
                   id="path232"
                   style="fill:#d4284d;fill-opacity:1;fill-rule:nonzero;stroke:none"
                   d="m 8196.8045,8187.256 c 0,0.1621 0,0.3222 0,0.4833 0.081,0 0.162,0 0.2421,0 0,-0.1611 0,-0.3212 0,-0.4833 -0.08,0 -0.1611,0 -0.2421,0 z" /><path
                   id="path234"
                   style="fill:#e02c44;fill-opacity:1;fill-rule:nonzero;stroke:none"
                   d="m 8197.0466,8187.256 c 0.1611,0 0.3222,0 0.4842,0 0,0.081 0,0.1616 0,0.2422 -0.162,0 -0.3231,0 -0.4842,0 0,-0.081 0,-0.1611 0,-0.2422 z" /><path
                   id="path236"
                   style="fill:#e83536;fill-opacity:1;fill-rule:nonzero;stroke:none"
                   d="m 8197.0466,8187.4982 c 0.1611,0 0.3222,0 0.4842,0 0,0.08 0,0.1606 0,0.2411 -0.162,0 -0.3231,0 -0.4842,0 0,-0.081 0,-0.1611 0,-0.2411 z" /><path
                   id="path238"
                   style="fill:#ea3236;fill-opacity:1;fill-rule:nonzero;stroke:none"
                   d="m 8197.5308,8187.256 c 0.1611,0 0.3232,0 0.4843,0 0,0.081 0,0.1616 0,0.2422 -0.1611,0 -0.3232,0 -0.4843,0 0,-0.081 0,-0.1611 0,-0.2422 z" /><path
                   id="path240"
                   style="fill:#ee3b2e;fill-opacity:1;fill-rule:nonzero;stroke:none"
                   d="m 8197.5308,8187.4982 c 0.1611,0 0.3232,0 0.4843,0 0,0.08 0,0.1606 0,0.2411 -0.1611,0 -0.3232,0 -0.4843,0 0,-0.081 0,-0.1611 0,-0.2411 z" /><path
                   id="path242"
                   style="fill:#ec3334;fill-opacity:1;fill-rule:nonzero;stroke:none"
                   d="m 8198.0151,8187.256 c 0.1611,0 0.3212,0 0.4833,0 0,0.1621 0,0.3222 0,0.4833 -0.1621,0 -0.3222,0 -0.4833,0 0,-0.1611 0,-0.3212 0,-0.4833 z" /><path
                   id="path244"
                   style="fill:#eb3235;fill-opacity:1;fill-rule:nonzero;stroke:none"
                   d="m 8198.4984,8187.256 c 0.1611,0 0.3222,0 0.4833,0 0,0.1621 0,0.3222 0,0.4833 -0.1611,0 -0.3222,0 -0.4833,0 0,-0.1611 0,-0.3212 0,-0.4833 z" /><path
                   id="path246"
                   style="fill:#e82a3a;fill-opacity:1;fill-rule:nonzero;stroke:none"
                   d="m 8198.9817,8187.256 c 0.162,0 0.3231,0 0.4832,0 0,0.1621 0,0.3222 0,0.4833 -0.1601,0 -0.3212,0 -0.4832,0 0,-0.1611 0,-0.3212 0,-0.4833 z" /><path
                   id="path248"
                   style="fill:#e31f43;fill-opacity:1;fill-rule:nonzero;stroke:none"
                   d="m 8199.4649,8187.256 c 0.1621,0 0.3232,0 0.4843,0 0,0.1621 0,0.3222 0,0.4833 -0.1611,0 -0.3222,0 -0.4843,0 0,-0.1611 0,-0.3212 0,-0.4833 z" /><path
                   id="path250"
                   style="fill:#dd144f;fill-opacity:1;fill-rule:nonzero;stroke:none"
                   d="m 8199.9492,8187.256 c 0.1611,0 0.3231,0 0.4842,0 0,0.1621 0,0.3222 0,0.4833 -0.1611,0 -0.3231,0 -0.4842,0 0,-0.1611 0,-0.3212 0,-0.4833 z" /><path
                   id="path252"
                   style="fill:#d4115e;fill-opacity:1;fill-rule:nonzero;stroke:none"
                   d="m 8200.4334,8187.256 c 0.1602,0 0.3222,0 0.4833,0 0,0.1621 0,0.3222 0,0.4833 -0.1611,0 -0.3231,0 -0.4833,0 0,-0.1611 0,-0.3212 0,-0.4833 z" /><path
                   id="path254"
                   style="fill:#ca106f;fill-opacity:1;fill-rule:nonzero;stroke:none"
                   d="m 8200.9167,8187.256 c 0.1611,0 0.3222,0 0.4833,0 0,0.1621 0,0.3222 0,0.4833 -0.1611,0 -0.3222,0 -0.4833,0 0,-0.1611 0,-0.3212 0,-0.4833 z" /><path
                   id="path256"
                   style="fill:#de3339;fill-opacity:1;fill-rule:nonzero;stroke:none"
                   d="m 8196.5633,8187.7393 c 0,0.1621 0,0.3242 0,0.4862 0.08,0 0.1611,0 0.2412,0 0,-0.162 0,-0.3241 0,-0.4862 -0.08,0 -0.1611,0 -0.2412,0 z" /><path
                   id="path258"
                   style="fill:#e83932;fill-opacity:1;fill-rule:nonzero;stroke:none"
                   d="m 8196.8045,8187.7393 c 0,0.1621 0,0.3242 0,0.4862 0.081,0 0.162,0 0.2421,0 0,-0.162 0,-0.3241 0,-0.4862 -0.08,0 -0.1611,0 -0.2421,0 z" /><path
                   id="path260"
                   style="fill:#ee3e2d;fill-opacity:1;fill-rule:nonzero;stroke:none"
                   d="m 8197.0466,8187.7393 c 0.1611,0 0.3222,0 0.4842,0 0,0.081 0,0.1621 0,0.2431 -0.162,0 -0.3231,0 -0.4842,0 0,-0.081 0,-0.162 0,-0.2431 z" /><path
                   id="path262"
                   style="fill:#f04528;fill-opacity:1;fill-rule:nonzero;stroke:none"
                   d="m 8197.0466,8187.9824 c 0.1611,0 0.3222,0 0.4842,0 0,0.081 0,0.1621 0,0.2431 -0.162,0 -0.3231,0 -0.4842,0 0,-0.081 0,-0.162 0,-0.2431 z" /><path
                   id="path264"
                   style="fill:#f04329;fill-opacity:1;fill-rule:nonzero;stroke:none"
                   d="m 8197.5308,8187.7393 c 0.1611,0 0.3232,0 0.4843,0 0,0.1621 0,0.3242 0,0.4862 -0.1611,0 -0.3232,0 -0.4843,0 0,-0.162 0,-0.3241 0,-0.4862 z" /><path
                   id="path266"
                   style="fill:#f04329;fill-opacity:1;fill-rule:nonzero;stroke:none"
                   d="m 8198.0151,8187.7393 c 0.1611,0 0.3212,0 0.4833,0 0,0.1621 0,0.3242 0,0.4862 -0.1621,0 -0.3222,0 -0.4833,0 0,-0.162 0,-0.3241 0,-0.4862 z" /><path
                   id="path268"
                   style="fill:#ef412a;fill-opacity:1;fill-rule:nonzero;stroke:none"
                   d="m 8198.4984,8187.7393 c 0.1611,0 0.3222,0 0.4833,0 0,0.1621 0,0.3242 0,0.4862 -0.1611,0 -0.3222,0 -0.4833,0 0,-0.162 0,-0.3241 0,-0.4862 z" /><path
                   id="path270"
                   style="fill:#ef3b2e;fill-opacity:1;fill-rule:nonzero;stroke:none"
                   d="m 8198.9817,8187.7393 c 0.162,0 0.3231,0 0.4832,0 0,0.1621 0,0.3242 0,0.4862 -0.1601,0 -0.3212,0 -0.4832,0 0,-0.162 0,-0.3241 0,-0.4862 z" /><path
                   id="path272"
                   style="fill:#ed3134;fill-opacity:1;fill-rule:nonzero;stroke:none"
                   d="m 8199.4649,8187.7393 c 0.1621,0 0.3232,0 0.4843,0 0,0.1621 0,0.3242 0,0.4862 -0.1611,0 -0.3222,0 -0.4843,0 0,-0.162 0,-0.3241 0,-0.4862 z" /><path
                   id="path274"
                   style="fill:#e7223e;fill-opacity:1;fill-rule:nonzero;stroke:none"
                   d="m 8199.9492,8187.7393 c 0.1611,0 0.3231,0 0.4842,0 0,0.1621 0,0.3242 0,0.4862 -0.1611,0 -0.3231,0 -0.4842,0 0,-0.162 0,-0.3241 0,-0.4862 z" /><path
                   id="path276"
                   style="fill:#e0154c;fill-opacity:1;fill-rule:nonzero;stroke:none"
                   d="m 8200.4334,8187.7393 c 0.1602,0 0.3222,0 0.4833,0 0,0.1621 0,0.3242 0,0.4862 -0.1611,0 -0.3231,0 -0.4833,0 0,-0.162 0,-0.3241 0,-0.4862 z" /><path
                   id="path278"
                   style="fill:#d9115c;fill-opacity:1;fill-rule:nonzero;stroke:none"
                   d="m 8200.9167,8187.7393 c 0.1611,0 0.3222,0 0.4833,0 0,0.1621 0,0.3242 0,0.4862 -0.1611,0 -0.3222,0 -0.4833,0 0,-0.162 0,-0.3241 0,-0.4862 z" /><path
                   id="path280"
                   style="fill:#e84427;fill-opacity:1;fill-rule:nonzero;stroke:none"
                   d="m 8196.5633,8188.2255 c 0,0.1592 0,0.3212 0,0.4823 0.08,0 0.1611,0 0.2412,0 0,-0.1611 0,-0.3231 0,-0.4823 -0.08,0 -0.1611,0 -0.2412,0 z" /><path
                   id="path282"
                   style="fill:#ee4926;fill-opacity:1;fill-rule:nonzero;stroke:none"
                   d="m 8196.8045,8188.2255 c 0,0.1592 0,0.3212 0,0.4823 0.081,0 0.162,0 0.2421,0 0,-0.1611 0,-0.3231 0,-0.4823 -0.08,0 -0.1611,0 -0.2421,0 z" /><path
                   id="path284"
                   style="fill:#f04d27;fill-opacity:1;fill-rule:nonzero;stroke:none"
                   d="m 8197.0466,8188.2255 c 0.1611,0 0.3222,0 0.4842,0 0,0.1592 0,0.3212 0,0.4823 -0.162,0 -0.3231,0 -0.4842,0 0,-0.1611 0,-0.3231 0,-0.4823 z" /><path
                   id="path286"
                   style="fill:#f05428;fill-opacity:1;fill-rule:nonzero;stroke:none"
                   d="m 8197.5308,8188.2255 c 0.1611,0 0.3232,0 0.4843,0 0,0.1592 0,0.3212 0,0.4823 -0.1611,0 -0.3232,0 -0.4843,0 0,-0.1611 0,-0.3231 0,-0.4823 z" /><path
                   id="path288"
                   style="fill:#f05627;fill-opacity:1;fill-rule:nonzero;stroke:none"
                   d="m 8198.0151,8188.2255 c 0.1611,0 0.3212,0 0.4833,0 0,0.08 0,0.1601 0,0.2407 -0.1621,0 -0.3222,0 -0.4833,0 0,-0.081 0,-0.1611 0,-0.2407 z" /><path
                   id="path290"
                   style="fill:#f06824;fill-opacity:1;fill-rule:nonzero;stroke:none"
                   d="m 8198.0151,8188.4662 c 0.1611,0 0.3212,0 0.4833,0 0,0.081 0,0.1611 0,0.2416 -0.1621,0 -0.3222,0 -0.4833,0 0,-0.081 0,-0.1611 0,-0.2416 z" /><path
                   id="path292"
                   style="fill:#f05026;fill-opacity:1;fill-rule:nonzero;stroke:none"
                   d="m 8198.4984,8188.2255 c 0.1611,0 0.3222,0 0.4833,0 0,0.1592 0,0.3212 0,0.4823 -0.1611,0 -0.3222,0 -0.4833,0 0,-0.1611 0,-0.3231 0,-0.4823 z" /><path
                   id="path294"
                   style="fill:#ef4728;fill-opacity:1;fill-rule:nonzero;stroke:none"
                   d="m 8198.9817,8188.2255 c 0.162,0 0.3231,0 0.4832,0 0,0.1592 0,0.3212 0,0.4823 -0.1601,0 -0.3212,0 -0.4832,0 0,-0.1611 0,-0.3231 0,-0.4823 z" /><path
                   id="path296"
                   style="fill:#ef3f2b;fill-opacity:1;fill-rule:nonzero;stroke:none"
                   d="m 8199.4649,8188.2255 c 0.1621,0 0.3232,0 0.4843,0 0,0.1592 0,0.3212 0,0.4823 -0.1611,0 -0.3222,0 -0.4843,0 0,-0.1611 0,-0.3231 0,-0.4823 z" /><path
                   id="path298"
                   style="fill:#ee3333;fill-opacity:1;fill-rule:nonzero;stroke:none"
                   d="m 8199.9492,8188.2255 c 0.1611,0 0.3231,0 0.4842,0 0,0.1592 0,0.3212 0,0.4823 -0.1611,0 -0.3231,0 -0.4842,0 0,-0.1611 0,-0.3231 0,-0.4823 z" /><path
                   id="path300"
                   style="fill:#e81f3f;fill-opacity:1;fill-rule:nonzero;stroke:none"
                   d="m 8200.4334,8188.2255 c 0,0.1592 0,0.3212 0,0.4823 0.08,0 0.1611,0 0.2412,0 0,-0.1611 0,-0.3231 0,-0.4823 -0.08,0 -0.1611,0 -0.2412,0 z" /><path
                   id="path302"
                   style="fill:#e51846;fill-opacity:1;fill-rule:nonzero;stroke:none"
                   d="m 8200.6746,8188.2255 c 0,0.1592 0,0.3212 0,0.4823 0.081,0 0.1621,0 0.2421,0 0,-0.1611 0,-0.3231 0,-0.4823 -0.08,0 -0.1611,0 -0.2421,0 z" /><path
                   id="path304"
                   style="fill:#e2134d;fill-opacity:1;fill-rule:nonzero;stroke:none"
                   d="m 8200.9167,8188.2255 c 0.1611,0 0.3222,0 0.4833,0 0,0.1592 0,0.3212 0,0.4823 -0.1611,0 -0.3222,0 -0.4833,0 0,-0.1611 0,-0.3231 0,-0.4823 z" /><path
                   id="path306"
                   style="fill:#ea5623;fill-opacity:1;fill-rule:nonzero;stroke:none"
                   d="m 8196.5633,8188.7078 c 0.1601,0 0.3222,0 0.4833,0 0,0.1611 0,0.3232 0,0.4843 -0.1611,0 -0.3232,0 -0.4833,0 0,-0.1611 0,-0.3232 0,-0.4843 z" /><path
                   id="path308"
                   style="fill:#f06a25;fill-opacity:1;fill-rule:nonzero;stroke:none"
                   d="m 8197.0466,8188.7078 c 0.1611,0 0.3222,0 0.4842,0 0,0.1611 0,0.3232 0,0.4843 -0.162,0 -0.3231,0 -0.4842,0 0,-0.1611 0,-0.3232 0,-0.4843 z" /><path
                   id="path310"
                   style="fill:#f27a25;fill-opacity:1;fill-rule:nonzero;stroke:none"
                   d="m 8197.5308,8188.7078 c 0.1611,0 0.3232,0 0.4843,0 0,0.1611 0,0.3232 0,0.4843 -0.1611,0 -0.3232,0 -0.4843,0 0,-0.1611 0,-0.3232 0,-0.4843 z" /><path
                   id="path312"
                   style="fill:#f27d25;fill-opacity:1;fill-rule:nonzero;stroke:none"
                   d="m 8198.0151,8188.7078 c 0,0.1611 0,0.3232 0,0.4843 0.08,0 0.1601,0 0.2411,0 0,-0.1611 0,-0.3232 0,-0.4843 -0.081,0 -0.161,0 -0.2411,0 z" /><path
                   id="path314"
                   style="fill:#f17924;fill-opacity:1;fill-rule:nonzero;stroke:none"
                   d="m 8198.2562,8188.7078 c 0,0.1611 0,0.3232 0,0.4843 0.081,0 0.1611,0 0.2422,0 0,-0.1611 0,-0.3232 0,-0.4843 -0.081,0 -0.1611,0 -0.2422,0 z" /><path
                   id="path316"
                   style="fill:#f27225;fill-opacity:1;fill-rule:nonzero;stroke:none"
                   d="m 8198.4984,8188.7078 c 0.1611,0 0.3222,0 0.4833,0 0,0.1611 0,0.3232 0,0.4843 -0.1611,0 -0.3222,0 -0.4833,0 0,-0.1611 0,-0.3232 0,-0.4843 z" /><path
                   id="path318"
                   style="fill:#f15d27;fill-opacity:1;fill-rule:nonzero;stroke:none"
                   d="m 8198.9817,8188.7078 c 0.162,0 0.3231,0 0.4832,0 0,0.1611 0,0.3232 0,0.4843 -0.1601,0 -0.3212,0 -0.4832,0 0,-0.1611 0,-0.3232 0,-0.4843 z" /><path
                   id="path320"
                   style="fill:#ef4a26;fill-opacity:1;fill-rule:nonzero;stroke:none"
                   d="m 8199.4649,8188.7078 c 0.1621,0 0.3232,0 0.4843,0 0,0.1611 0,0.3232 0,0.4843 -0.1611,0 -0.3222,0 -0.4843,0 0,-0.1611 0,-0.3232 0,-0.4843 z" /><path
                   id="path322"
                   style="fill:#ef3e2b;fill-opacity:1;fill-rule:nonzero;stroke:none"
                   d="m 8199.9492,8188.7078 c 0.1611,0 0.3231,0 0.4842,0 0,0.1611 0,0.3232 0,0.4843 -0.1611,0 -0.3231,0 -0.4842,0 0,-0.1611 0,-0.3232 0,-0.4843 z" /><path
                   id="path324"
                   style="fill:#ec2c35;fill-opacity:1;fill-rule:nonzero;stroke:none"
                   d="m 8200.4334,8188.7078 c 0.1602,0 0.3222,0 0.4833,0 0,0.1611 0,0.3232 0,0.4843 -0.1611,0 -0.3231,0 -0.4833,0 0,-0.1611 0,-0.3232 0,-0.4843 z" /><path
                   id="path326"
                   style="fill:#e71942;fill-opacity:1;fill-rule:nonzero;stroke:none"
                   d="m 8200.9167,8188.7078 c 0.1611,0 0.3222,0 0.4833,0 0,0.1611 0,0.3232 0,0.4843 -0.1611,0 -0.3222,0 -0.4833,0 0,-0.1611 0,-0.3232 0,-0.4843 z" /><path
                   id="path328"
                   style="fill:#eb7624;fill-opacity:1;fill-rule:nonzero;stroke:none"
                   d="m 8196.5633,8189.1921 c 0.1601,0 0.3222,0 0.4833,0 0,0.1621 0,0.3222 0,0.4833 -0.1611,0 -0.3232,0 -0.4833,0 0,-0.1611 0,-0.3212 0,-0.4833 z" /><path
                   id="path330"
                   style="fill:#f39529;fill-opacity:1;fill-rule:nonzero;stroke:none"
                   d="m 8197.0466,8189.1921 c 0.1611,0 0.3222,0 0.4842,0 0,0.1621 0,0.3222 0,0.4833 -0.162,0 -0.3221,0 -0.4842,0 0,-0.1611 0,-0.3212 0,-0.4833 z" /><path
                   id="path332"
                   style="fill:#f3a42e;fill-opacity:1;fill-rule:nonzero;stroke:none"
                   d="m 8197.5308,8189.1921 c 0.1611,0 0.3232,0 0.4843,0 0,0.1621 0,0.3222 0,0.4833 -0.1611,0 -0.3232,0 -0.4843,0 0,-0.1611 0,-0.3212 0,-0.4833 z" /><path
                   id="path334"
                   style="fill:#f3a72d;fill-opacity:1;fill-rule:nonzero;stroke:none"
                   d="m 8198.0151,8189.1921 c 0,0.1621 0,0.3222 0,0.4833 0.08,0 0.1601,0 0.2411,0 0,-0.1611 0,-0.3212 0,-0.4833 -0.081,0 -0.161,0 -0.2411,0 z" /><path
                   id="path336"
                   style="fill:#f3a42c;fill-opacity:1;fill-rule:nonzero;stroke:none"
                   d="m 8198.2562,8189.1921 c 0,0.1621 0,0.3222 0,0.4833 0.081,0 0.1611,0 0.2422,0 0,-0.1611 0,-0.3212 0,-0.4833 -0.081,0 -0.1611,0 -0.2422,0 z" /><path
                   id="path338"
                   style="fill:#f39d29;fill-opacity:1;fill-rule:nonzero;stroke:none"
                   d="m 8198.4984,8189.1921 c 0.1611,0 0.3222,0 0.4833,0 0,0.1621 0,0.3222 0,0.4833 -0.1611,0 -0.3222,0 -0.4833,0 0,-0.1611 0,-0.3212 0,-0.4833 z" /><path
                   id="path340"
                   style="fill:#f38127;fill-opacity:1;fill-rule:nonzero;stroke:none"
                   d="m 8198.9817,8189.1921 c 0.162,0 0.3231,0 0.4832,0 0,0.1621 0,0.3222 0,0.4833 -0.1601,0 -0.3212,0 -0.4832,0 0,-0.1611 0,-0.3212 0,-0.4833 z" /><path
                   id="path342"
                   style="fill:#f25d27;fill-opacity:1;fill-rule:nonzero;stroke:none"
                   d="m 8199.4649,8189.1921 c 0.1621,0 0.3232,0 0.4843,0 0,0.1621 0,0.3222 0,0.4833 -0.1611,0 -0.3222,0 -0.4843,0 0,-0.1611 0,-0.3212 0,-0.4833 z" /><path
                   id="path344"
                   style="fill:#f04628;fill-opacity:1;fill-rule:nonzero;stroke:none"
                   d="m 8199.9492,8189.1921 c 0,0.1621 0,0.3222 0,0.4833 0.081,0 0.1611,0 0.2421,0 0,-0.1611 0,-0.3212 0,-0.4833 -0.081,0 -0.1611,0 -0.2421,0 z" /><path
                   id="path346"
                   style="fill:#ef402a;fill-opacity:1;fill-rule:nonzero;stroke:none"
                   d="m 8200.1913,8189.1921 c 0,0.1621 0,0.3222 0,0.4833 0.081,0 0.1611,0 0.2421,0 0,-0.1611 0,-0.3212 0,-0.4833 -0.081,0 -0.1611,0 -0.2421,0 z" /><path
                   id="path348"
                   style="fill:#ef3730;fill-opacity:1;fill-rule:nonzero;stroke:none"
                   d="m 8200.4334,8189.1921 c 0.1602,0 0.3222,0 0.4833,0 0,0.1621 0,0.3222 0,0.4833 -0.1611,0 -0.3231,0 -0.4833,0 0,-0.1611 0,-0.3212 0,-0.4833 z" /><path
                   id="path350"
                   style="fill:#ea213a;fill-opacity:1;fill-rule:nonzero;stroke:none"
                   d="m 8200.9167,8189.1921 c 0.1611,0 0.3222,0 0.4833,0 0,0.1621 0,0.3222 0,0.4833 -0.1611,0 -0.3222,0 -0.4833,0 0,-0.1611 0,-0.3212 0,-0.4833 z" /><path
                   id="path352"
                   style="fill:#ec9829;fill-opacity:1;fill-rule:nonzero;stroke:none"
                   d="m 8196.5633,8189.6754 c 0.1601,0 0.3222,0 0.4833,0 0,0.162 0,0.3241 0,0.4832 -0.1611,0 -0.3232,0 -0.4833,0 0,-0.1591 0,-0.3212 0,-0.4832 z" /><path
                   id="path354"
                   style="fill:#f3b433;fill-opacity:1;fill-rule:nonzero;stroke:none"
                   d="m 8197.0466,8189.6754 c 0,0.162 0,0.3241 0,0.4832 0.08,0 0.1611,0 0.2421,0 0,-0.1591 0,-0.3212 0,-0.4832 -0.08,0 -0.1611,0 -0.2421,0 z" /><path
                   id="path356"
                   style="fill:#f4bc3a;fill-opacity:1;fill-rule:nonzero;stroke:none"
                   d="m 8197.2887,8189.6754 c 0,0.162 0,0.3241 0,0.4832 0.08,0 0.1611,0 0.2421,0 0,-0.1591 0,-0.3212 0,-0.4832 -0.081,0 -0.162,0 -0.2421,0 z" /><path
                   id="path358"
                   style="fill:#f4c03f;fill-opacity:1;fill-rule:nonzero;stroke:none"
                   d="m 8197.5308,8189.6754 c 0.1611,0 0.3232,0 0.4843,0 0,0.162 0,0.3241 0,0.4832 -0.1611,0 -0.3232,0 -0.4843,0 0,-0.1591 0,-0.3212 0,-0.4832 z" /><path
                   id="path360"
                   style="fill:#f4c342;fill-opacity:1;fill-rule:nonzero;stroke:none"
                   d="m 8198.0151,8189.6754 c 0,0.162 0,0.3241 0,0.4832 0.08,0 0.1601,0 0.2411,0 0,-0.1591 0,-0.3212 0,-0.4832 -0.081,0 -0.161,0 -0.2411,0 z" /><path
                   id="path362"
                   style="fill:#f4c03e;fill-opacity:1;fill-rule:nonzero;stroke:none"
                   d="m 8198.2562,8189.6754 c 0,0.162 0,0.3241 0,0.4832 0.081,0 0.1611,0 0.2422,0 0,-0.1591 0,-0.3212 0,-0.4832 -0.081,0 -0.1611,0 -0.2422,0 z" /><path
                   id="path364"
                   style="fill:#f3ba39;fill-opacity:1;fill-rule:nonzero;stroke:none"
                   d="m 8198.4984,8189.6754 c 0.1611,0 0.3222,0 0.4833,0 0,0.162 0,0.3241 0,0.4832 -0.1611,0 -0.3222,0 -0.4833,0 0,-0.1591 0,-0.3212 0,-0.4832 z" /><path
                   id="path366"
                   style="fill:#f3a42d;fill-opacity:1;fill-rule:nonzero;stroke:none"
                   d="m 8198.9817,8189.6754 c 0.162,0 0.3231,0 0.4832,0 0,0.162 0,0.3241 0,0.4832 -0.1601,0 -0.3212,0 -0.4832,0 0,-0.1591 0,-0.3212 0,-0.4832 z" /><path
                   id="path368"
                   style="fill:#f27a24;fill-opacity:1;fill-rule:nonzero;stroke:none"
                   d="m 8199.4649,8189.6754 c 0,0.162 0,0.3241 0,0.4832 0.081,0 0.1621,0 0.2431,0 0,-0.1591 0,-0.3212 0,-0.4832 -0.081,0 -0.162,0 -0.2431,0 z" /><path
                   id="path370"
                   style="fill:#f16424;fill-opacity:1;fill-rule:nonzero;stroke:none"
                   d="m 8199.708,8189.6754 c 0,0.162 0,0.3241 0,0.4832 0.08,0 0.1602,0 0.2412,0 0,-0.1591 0,-0.3212 0,-0.4832 -0.081,0 -0.1611,0 -0.2412,0 z" /><path
                   id="path372"
                   style="fill:#f05126;fill-opacity:1;fill-rule:nonzero;stroke:none"
                   d="m 8199.9492,8189.6754 c 0,0.162 0,0.3241 0,0.4832 0.081,0 0.1611,0 0.2421,0 0,-0.1591 0,-0.3212 0,-0.4832 -0.081,0 -0.1611,0 -0.2421,0 z" /><path
                   id="path374"
                   style="fill:#f04728;fill-opacity:1;fill-rule:nonzero;stroke:none"
                   d="m 8200.1913,8189.6754 c 0,0.162 0,0.3241 0,0.4832 0.081,0 0.1611,0 0.2421,0 0,-0.1591 0,-0.3212 0,-0.4832 -0.081,0 -0.1611,0 -0.2421,0 z" /><path
                   id="path376"
                   style="fill:#ef3f2a;fill-opacity:1;fill-rule:nonzero;stroke:none"
                   d="m 8200.4334,8189.6754 c 0.1602,0 0.3222,0 0.4833,0 0,0.162 0,0.3241 0,0.4832 -0.1611,0 -0.3231,0 -0.4833,0 0,-0.1591 0,-0.3212 0,-0.4832 z" /><path
                   id="path378"
                   style="fill:#ec2b35;fill-opacity:1;fill-rule:nonzero;stroke:none"
                   d="m 8200.9167,8189.6754 c 0,0.162 0,0.3241 0,0.4832 0.08,0 0.1611,0 0.2421,0 0,-0.1591 0,-0.3212 0,-0.4832 -0.081,0 -0.162,0 -0.2421,0 z" /><path
                   id="path380"
                   style="fill:#e72139;fill-opacity:1;fill-rule:nonzero;stroke:none"
                   d="m 8201.1588,8189.6754 c 0,0.162 0,0.3241 0,0.4832 0.08,0 0.1602,0 0.2412,0 0,-0.1591 0,-0.3212 0,-0.4832 -0.081,0 -0.1611,0 -0.2412,0 z" /></g></g></g></g></g><g
         transform="matrix(1.6547438,0,0,1.6550519,-60.705437,-58.979662)"
         id="g2018"><path
           d="m 138.00477,86.800678 c 0,-28.49229 -21.89155,-51.915072 -49.684282,-54.145603 -1.531235,-0.283976 -3.092581,-0.283976 -4.623816,-0.283976 -4.065988,0 -8.010236,0.405457 -11.792249,1.24726 C 47.487986,39.124212 29.2266,60.873772 29.2266,86.800678 c 0,30.033912 24.446548,54.328342 54.470072,54.328342 30.033908,0 54.308098,-24.29443 54.308098,-54.328342"
           style="fill:#f33863;fill-opacity:1;fill-rule:nonzero;stroke:none;stroke-width:2.59575"
           id="path384" /><path
           d="m 89.871711,98.18773 c 0.831679,0.983531 2.514766,1.69321 4.907791,1.69321 2.240914,0 4.907532,-0.304222 7.432418,-1.013902 l 2.11918,11.407042 c -4.349967,1.52111 -8.831796,1.95694 -13.475599,1.95694 -4.644062,0 -8.284347,-0.71981 -11.224817,-2.38265 -2.960717,-1.68334 -4.927779,-3.52866 -6.033051,-6.21579 -1.135642,-2.36239 -1.69321,-6.438505 -1.69321,-11.488284 V 87.662728 H 62.910397 V 74.612836 h 8.994026 V 33.618359 c 3.782013,-0.841803 7.726261,-1.24726 11.792249,-1.24726 1.531235,0 3.092581,0 4.623816,0.283976 V 74.612836 H 100.2446 V 87.662728 H 88.320488 v 4.207976 c 0,3.214321 0.425963,5.20163 1.551223,6.317026"
           style="fill:#ffffff;fill-opacity:1;fill-rule:nonzero;stroke:none;stroke-width:2.59575"
           id="path386" /></g><path
         id="path398"
         style="fill:#ffffff;fill-opacity:1;fill-rule:nonzero;stroke:none;stroke-width:4.29452"
         d="m 358.87901,-15.853431 c 0,-49.67476 -40.27254,-89.974669 -90.02578,-89.974669 -49.66732,0 -89.97423,40.299909 -89.97423,89.974669 0,49.67476 40.30691,90.025333 89.97423,90.025333 49.75324,0 90.02578,-40.350573 90.02578,-90.025333" /><path
         id="path400"
         style="fill:#5c95f8;fill-opacity:1;fill-rule:evenodd;stroke:none;stroke-width:4.29452"
         d="m 306.44095,-47.550001 c -0.0817,-4.528142 -1.25866,-5.819567 -5.78636,-5.819567 -10.60618,0 -21.22955,0 -31.84862,0 -10.52455,0 -21.12643,0 -31.7498,0 -4.44608,0 -5.70473,1.291425 -5.70473,5.819567 0,11.655878 0.0472,23.562915 -0.16748,35.386231 0,3.3543554 0.92358,4.1086873 4.0251,3.9747361 4.44609,-0.2850748 4.532,-0.1176311 4.0294,-4.4444241 -1.73118,-15.043289 8.67309,-29.583407 23.48911,-32.484818 15.27134,-2.934899 30.54269,6.205105 34.73533,20.82937 1.25865,4.578375 1.62808,9.441824 0.67444,13.969967 -0.33507,1.6769629 0.0817,2.0122689 1.59371,2.0122689 6.70995,0.5031749 6.70995,0.6208111 6.70995,-6.3390569 0,-10.850884 0,-21.919438 0,-32.904274 z m -37.5018,50.5639022 c 10.15082,0 18.87548,-8.7544657 18.70794,-18.8673322 -0.0817,-10.364024 -8.72465,-18.950623 -19.04302,-18.783184 -10.23673,0.251587 -18.87976,8.854929 -18.62632,19.034771 0.24916,10.1965854 8.80628,18.6157452 18.9614,18.6157452 z m 27.85357,18.7492678 c 9.64823,0 9.64823,0 9.64823,-9.642751 0,-9.4422531 0,-9.4422531 -9.4807,-9.4422531 -9.56231,0 -9.56231,0 -9.56231,9.5594611 0,9.525543 0,9.525543 9.39478,9.525543 z m 7.88698,10.934604 c -23.82848,0 -47.73856,0 -71.56702,0 -8.52273,0 -12.92156,-4.443995 -12.92156,-12.997106 0,-11.7898287 0,-23.6131445 0,-35.554098 0,-11.823316 0,-23.864733 0,-35.805257 0,-8.217804 4.53199,-12.745947 12.50059,-12.745947 24.0819,0 47.99198,0 71.98799,0 8.30795,0 12.87002,4.528143 12.87002,12.879898 0,23.84799 0,47.6122595 0,71.527224 0,8.251291 -4.56207,12.695286 -12.87002,12.695286" /><path
         style="fill:#000000;stroke-width:0.0383142;fill-opacity:0"
         d="M 6.68512,18.408555 C 6.1088667,18.271665 5.7021548,17.852317 5.5791545,17.268228 5.5489114,17.124614 5.536564,15.582811 5.5369646,12.000029 5.5375728,6.5605879 5.5334045,6.68406 5.7293955,6.2998859 5.9243326,5.9177776 6.3511408,5.6515482 6.8889058,5.5766201 7.1148983,5.545132 8.6062793,5.536034 12.203065,5.5442015 l 4.999999,0.011354 0.249043,0.086383 c 0.466389,0.1617728 0.772094,0.4705801 0.934813,0.9442988 0.07962,0.2317836 0.08036,0.2737356 0.09135,5.1541327 0.0067,2.962346 -0.0035,5.051273 -0.02563,5.249198 -0.04971,0.445218 -0.160916,0.724559 -0.386887,0.971806 -0.204042,0.223255 -0.480987,0.377487 -0.797526,0.444145 -0.24328,0.05123 -10.3679985,0.05414 -10.583108,0.003 z m 10.045635,-1.467072 c 0.08596,-0.04277 0.167963,-0.124772 0.210728,-0.210728 0.06534,-0.13132 0.07079,-0.312139 0.08169,-2.707767 0.0064,-1.411877 0.0012,-2.639583 -0.01168,-2.728234 -0.01285,-0.08865 -0.05546,-0.20072 -0.09469,-0.249042 -0.0673,-0.08289 -0.09463,-0.08735 -0.483043,-0.07889 -0.595368,0.01297 -0.568392,-0.0058 -0.528393,0.368633 0.04781,0.4476 0.03806,1.073526 -0.02157,1.384849 -0.24021,1.254087 -1.00672,2.250883 -2.168217,2.819623 -1.929719,0.944909 -4.1734213,0.22483 -5.1937864,-1.666861 -0.3921163,-0.726958 -0.5376933,-1.5261 -0.4438105,-2.436287 0.04312,-0.418044 0.02274,-0.437194 -0.48263,-0.453507 -0.3801863,-0.01227 -0.4048311,-0.0083 -0.5108135,0.08303 l -0.1113548,0.09592 0.012442,2.694752 c 0.00722,1.562659 0.027802,2.744699 0.049005,2.81364 0.049439,0.160756 0.1782839,0.273832 0.3612781,0.317061 0.090809,0.02145 1.971831,0.03347 4.6730601,0.02986 4.294876,-0.0057 4.528113,-0.0095 4.66179,-0.07605 z m -4.144549,-2.486017 c 0.474626,-0.113662 1.033179,-0.465523 1.339039,-0.843531 0.403086,-0.498168 0.57667,-0.985913 0.57667,-1.620357 0,-0.739395 -0.205937,-1.227368 -0.744111,-1.763185 -0.533603,-0.5312654 -1.037827,-0.7438761 -1.766996,-0.7450685 -0.68062,-0.00111 -1.260764,0.2443862 -1.761867,0.7455685 -0.5067919,0.506872 -0.749928,1.075767 -0.7536663,1.763444 -0.00246,0.45188 0.070671,0.770042 0.2599989,1.131213 0.5486534,1.046636 1.7325584,1.599739 2.8509324,1.331916 z m 4.148889,-4.9838016 c 0.252053,-0.109082 0.276399,-0.2160955 0.276399,-1.2149597 0,-0.9388282 -0.0135,-1.0099884 -0.220782,-1.1633936 -0.242692,-0.179616 -1.883192,-0.1795057 -2.125487,1.429e-4 -0.05821,0.043161 -0.126417,0.1372039 -0.151569,0.208985 -0.06267,0.1788719 -0.06267,1.7296595 0,1.9085314 0.103073,0.2941633 0.320556,0.3479737 1.348412,0.3336296 0.572905,-0.008 0.758868,-0.023531 0.873027,-0.072936 z"
         id="path1"
         transform="matrix(7.5000002,0,0,-7.5000002,178.879,74.171901)" /><path
         style="fill:#6994f1;fill-opacity:1;stroke-width:0.046502"
         d="M 6.7360508,18.412959 C 6.2767099,18.322048 5.8702596,18.004662 5.6893051,17.595584 5.5164179,17.204744 5.5052486,16.816933 5.5207092,11.741757 5.534458,7.2284969 5.5424698,6.792585 5.6156522,6.5760186 5.7803406,6.0886616 6.1474325,5.7460698 6.6410418,5.6190648 6.8351155,5.5691298 7.8872157,5.55699 12.020769,5.55699 c 4.732975,0 5.158889,0.00633 5.3972,0.08016 0.501532,0.1553871 0.851103,0.521306 0.981254,1.0271424 0.04993,0.1940414 0.06207,1.2423122 0.06207,5.3564766 0,4.75 -0.0058,5.134092 -0.08178,5.379518 -0.16482,0.532672 -0.603199,0.911734 -1.168188,1.010123 -0.347899,0.06058 -10.1699742,0.06297 -10.4752792,0.0025 z m 9.9560472,-1.459093 c 0.0867,-0.03623 0.195894,-0.124228 0.242642,-0.195556 0.07984,-0.121819 0.08499,-0.292036 0.08499,-2.80563 0,-1.471769 -0.01586,-2.732551 -0.03524,-2.801738 -0.04684,-0.167197 -0.234198,-0.214858 -0.708793,-0.180303 l -0.372016,0.02709 v 0.860287 c 0,0.9899 -0.042,1.203354 -0.370538,1.883332 -0.477687,0.988662 -1.42564,1.758312 -2.559089,2.077741 -0.5376,0.151508 -1.517929,0.152756 -2.036749,0.0026 C 9.7651725,15.482427 8.7701877,14.577972 8.3280816,13.449854 8.1143665,12.904519 8.0594409,12.544137 8.0760427,11.796157 c 0.018536,-0.835136 0.027449,-0.821683 -0.544398,-0.821683 -0.6105183,0 -0.5563434,-0.282362 -0.5563434,2.899683 0,2.997046 -0.00872,2.908698 0.3023164,3.064128 0.1515686,0.07574 0.4738946,0.08131 4.7097683,0.08138 3.817589,6.1e-5 4.572356,-0.0105 4.704712,-0.0658 z m -4.017115,-2.519428 c 0.945443,-0.277702 1.665925,-1.101299 1.817756,-2.077912 C 14.686173,11.112308 13.857601,9.8682139 12.625247,9.5524992 12.1806,9.4385861 11.492753,9.4793251 11.090729,9.6433838 9.9093304,10.125491 9.2480004,11.381166 9.5347618,12.597716 c 0.2006484,0.851228 0.9385212,1.599173 1.8148802,1.839656 0.324475,0.08904 1.017438,0.08751 1.325341,-0.0029 z m 4.036963,-4.9530699 c 0.271534,-0.094657 0.307412,-0.2350868 0.307612,-1.2040106 2.7e-4,-1.3110335 -0.0015,-1.3127377 -1.348381,-1.292247 -0.967448,0.014718 -1.04059,0.033244 -1.149565,0.2911649 -0.0409,0.096796 -0.05949,0.4023704 -0.05949,0.9778311 0,0.9454109 0.03716,1.1091126 0.275344,1.2128227 0.182411,0.079427 1.755061,0.090928 1.974477,0.014439 z"
         id="path2"
         transform="matrix(7.5000002,0,0,-7.5000002,178.879,74.171901)" /></g></g></svg>
